<svg width="40" height="40" viewBox="0 0 40 40" fill="none" xmlns="http://www.w3.org/2000/svg">
<g clip-path="url(#clip0_1_142)">
<path fill-rule="evenodd" clip-rule="evenodd" d="M20 0C23.5553 0 27.0635 0.96 30.1482 2.77413L28.9553 4.80235C26.2306 3.2 23.1341 2.35292 20 2.35292C10.2682 2.35292 2.35294 10.2682 2.35294 20C2.35294 29.7318 10.2682 37.647 20 37.647C29.7318 37.647 37.6471 29.7318 37.6471 20C37.6471 16.8635 36.8 13.767 35.1976 11.0423L37.2235 9.85175C39.04 12.9365 40 16.4447 40 20C40 31.0282 31.0282 40 20 40C8.97177 40 0 31.0282 0 20C0 8.97177 8.97177 0 20 0ZM20 7.05883V9.41175C14.1624 9.41175 9.41177 14.1624 9.41177 20C9.41177 25.8376 14.1624 30.5882 20 30.5882C25.8376 30.5882 30.5882 25.8376 30.5882 20H32.9412C32.9412 27.1365 27.1341 32.9412 20 32.9412C12.8659 32.9412 7.05883 27.1365 7.05883 20C7.05883 12.8635 12.8659 7.05883 20 7.05883ZM20 14.1176V16.4706C18.0541 16.4706 16.4706 18.0541 16.4706 20C16.4706 21.9459 18.0541 23.5294 20 23.5294C21.9459 23.5294 23.5294 21.9459 23.5294 20H25.8823C25.8823 23.2424 23.2447 25.8824 20 25.8824C16.7553 25.8824 14.1176 23.2424 14.1176 20C14.1176 16.7576 16.7553 14.1176 20 14.1176ZM37.9878 0.343062L39.6536 2.0066L27.5447 14.1176H32.9412V16.4706H23.5294V7.05883H25.8823V12.4527L37.9878 0.343062Z" fill="black"/>
</g>
<defs>
<clipPath id="clip0_1_142">
<rect width="40" height="40" fill="white"/>
</clipPath>
</defs>
</svg>
