<svg width="40" height="40" viewBox="0 0 40 40" fill="none" xmlns="http://www.w3.org/2000/svg">
<g clip-path="url(#clip0_1_134)">
<path d="M39.9999 28.2477C39.9999 25.9071 39.299 23.647 37.9727 21.7118C37.0188 20.3198 35.7904 19.1639 34.3669 18.3049C36.0429 16.7177 37.0915 14.4744 37.0915 11.9893C37.0915 7.19083 33.1876 3.28687 28.3892 3.28687C25.5438 3.28687 22.8785 4.69407 21.2595 7.00408C20.8481 6.94416 20.4278 6.91184 19.9999 6.91184C19.5721 6.91184 19.1519 6.94427 18.7405 7.00408C17.1214 4.69407 14.4561 3.28687 11.6108 3.28687C6.81234 3.28687 2.90838 7.19083 2.90838 11.9893C2.90838 14.4744 3.95702 16.7177 5.63312 18.3049C4.20948 19.1638 2.98108 20.3198 2.02726 21.7117C0.701027 23.647 1.90735e-06 25.9071 1.90735e-06 28.2477V33.0882H8.38922V36.713H31.6109V33.0882H40V28.2477H39.9999ZM28.3892 5.43472C32.0034 5.43472 34.9438 8.3751 34.9438 11.9894C34.9438 15.6038 32.0034 18.5442 28.3892 18.5442C28.3244 18.5442 28.2597 18.5432 28.1948 18.5413C28.1997 18.5275 28.2038 18.5134 28.2086 18.4997C28.3205 18.1825 28.4139 17.8567 28.4887 17.5239C28.494 17.5002 28.5 17.4768 28.505 17.4531C28.5245 17.3633 28.5415 17.2727 28.5582 17.1818C28.566 17.1389 28.5741 17.096 28.5813 17.053C28.5948 16.9719 28.6071 16.8905 28.6183 16.8088C28.6262 16.752 28.6333 16.6952 28.64 16.6382C28.6485 16.5661 28.6568 16.4938 28.6635 16.4211C28.6704 16.3469 28.6756 16.2726 28.6805 16.1982C28.6844 16.1395 28.6892 16.0811 28.6919 16.0222C28.6978 15.8958 28.7011 15.7692 28.7016 15.6424C28.7016 15.6331 28.7023 15.624 28.7023 15.6145C28.7023 15.6095 28.7019 15.6044 28.7019 15.5994C28.7017 15.47 28.6979 15.3413 28.6921 15.2131C28.6904 15.1758 28.6881 15.1387 28.686 15.1015C28.6796 14.9925 28.6714 14.8841 28.6612 14.7761C28.6588 14.7517 28.6569 14.7272 28.6544 14.7028C28.3299 11.5661 26.3483 8.88132 23.4896 7.63949C24.7215 6.25559 26.5032 5.43472 28.3892 5.43472ZM17.732 9.46411C17.753 9.45649 17.7741 9.44929 17.7951 9.44178C17.8603 9.41847 17.926 9.39635 17.992 9.37498C18.0421 9.35898 18.0924 9.34352 18.1431 9.3287C18.1799 9.31785 18.2169 9.30744 18.2539 9.29713C18.3201 9.27898 18.3866 9.26126 18.4537 9.24504C18.9498 9.12455 19.4672 9.05916 19.9997 9.05916C20.5327 9.05959 21.0503 9.12509 21.5465 9.24558C21.6132 9.26169 21.6793 9.2793 21.7451 9.29734C21.7827 9.30776 21.8203 9.31828 21.8575 9.32934C21.9076 9.34405 21.9574 9.3593 22.0069 9.37509C22.0738 9.39667 22.1403 9.41901 22.2062 9.44264C22.2265 9.44983 22.2468 9.4567 22.267 9.46411C24.4591 10.2748 26.1027 12.2257 26.4747 14.5933C26.4776 14.6122 26.4804 14.6312 26.4831 14.6502C26.4951 14.7304 26.5051 14.8113 26.514 14.8923C26.5172 14.9222 26.5206 14.9519 26.5235 14.9819C26.5306 15.0559 26.5359 15.1304 26.5406 15.2052C26.5425 15.2372 26.5452 15.269 26.5467 15.3012C26.5512 15.3966 26.5537 15.4926 26.554 15.5892C26.554 15.5975 26.5546 15.6057 26.5546 15.6141C26.5546 15.618 26.5543 15.6219 26.5543 15.6258C26.5541 15.7192 26.5513 15.812 26.5473 15.9045C26.546 15.9336 26.5447 15.9627 26.543 15.9917C26.5379 16.081 26.5313 16.1699 26.5227 16.2582C26.5193 16.2923 26.5148 16.3264 26.511 16.3604C26.5044 16.4176 26.4971 16.4746 26.4892 16.5313C26.4829 16.5754 26.4767 16.6197 26.4696 16.6636C26.4588 16.7305 26.4467 16.797 26.4339 16.8632C26.4224 16.9222 26.4098 16.9809 26.3967 17.0395C26.3889 17.0749 26.3807 17.1102 26.3722 17.1453C26.3513 17.2324 26.3283 17.319 26.3038 17.4052C26.294 17.4395 26.2849 17.4739 26.2746 17.5079C26.2597 17.5573 26.2436 17.6062 26.2276 17.6552C26.2147 17.6944 26.2015 17.7334 26.1878 17.7723C26.1724 17.8164 26.1571 17.8606 26.1408 17.9044C26.113 17.9789 26.0838 18.0526 26.0534 18.1258C26.0398 18.1584 26.0255 18.1907 26.0114 18.2233C25.9849 18.2842 25.9576 18.3447 25.9292 18.4047C25.9259 18.4117 25.9226 18.4188 25.9193 18.4259C25.909 18.4472 25.899 18.4686 25.8885 18.4898C25.8568 18.5547 25.8237 18.6188 25.7897 18.6824C25.7765 18.7071 25.7638 18.7321 25.7502 18.7567C25.7494 18.7583 25.7485 18.7598 25.7476 18.7613C25.7105 18.8289 25.6717 18.8955 25.6323 18.9617C25.6166 18.9879 25.6012 19.0142 25.5852 19.0401C25.5422 19.1098 25.4981 19.1787 25.4527 19.2466C25.4244 19.2888 25.3949 19.3301 25.3657 19.3717C25.3409 19.4069 25.3162 19.4422 25.2907 19.4769C25.2577 19.5218 25.2241 19.5662 25.19 19.6103C25.1668 19.6403 25.1434 19.67 25.1198 19.6996C25.0837 19.7447 25.0473 19.7896 25.0101 19.8338C24.987 19.8612 24.9633 19.888 24.9398 19.915C24.9011 19.9593 24.8626 20.0038 24.8228 20.047C24.7992 20.0727 24.7747 20.0974 24.7507 20.1227C24.686 20.1909 24.6199 20.2576 24.5524 20.323C24.5124 20.3618 24.4725 20.4007 24.4315 20.4384C24.4032 20.4645 24.3741 20.4898 24.3452 20.5155C24.2981 20.5572 24.2508 20.5986 24.2026 20.639C24.1781 20.6595 24.1534 20.6798 24.1286 20.7C24.0703 20.7474 24.0112 20.7939 23.9512 20.8395C23.9348 20.8518 23.9187 20.8644 23.9023 20.8766C22.8112 21.6877 21.4607 22.1685 19.9998 22.1685C18.5388 22.1685 17.1881 21.6876 16.0971 20.8763C16.081 20.8643 16.0652 20.8519 16.0492 20.8398C15.9889 20.7941 15.9295 20.7473 15.871 20.6996C15.8464 20.6796 15.8218 20.6595 15.7976 20.6391C15.7491 20.5985 15.7017 20.5569 15.6544 20.515C15.6257 20.4895 15.5967 20.4643 15.5685 20.4384C15.5274 20.4006 15.4874 20.3616 15.4473 20.3228C15.3795 20.2572 15.3132 20.1903 15.2484 20.1219C15.2246 20.0969 15.2004 20.0725 15.1771 20.0471C15.1372 20.0038 15.0987 19.9592 15.06 19.9148C15.0365 19.8879 15.0129 19.8612 14.9898 19.8338C14.9525 19.7896 14.9162 19.7447 14.8801 19.6997C14.8565 19.6701 14.833 19.6404 14.8098 19.6103C14.7758 19.5663 14.7422 19.5219 14.7092 19.477C14.6837 19.4422 14.6589 19.4068 14.6341 19.3715C14.6049 19.33 14.5755 19.2888 14.5474 19.2467C14.5017 19.1785 14.4574 19.1093 14.4143 19.0394C14.3985 19.0138 14.3833 18.9879 14.3678 18.962C14.3277 18.8949 14.2885 18.8274 14.2509 18.7588C14.237 18.7336 14.2239 18.7079 14.2103 18.6826C14.1763 18.6188 14.1431 18.5545 14.1112 18.4895C14.0999 18.4664 14.0888 18.4431 14.0777 18.4199C14.076 18.4164 14.0744 18.4128 14.0728 18.4093C14.0431 18.3466 14.0146 18.2832 13.9868 18.2193C13.9736 18.1889 13.9602 18.1586 13.9475 18.1281C13.9163 18.0534 13.8866 17.978 13.8581 17.902C13.8428 17.861 13.8286 17.8195 13.8141 17.7782C13.7992 17.7357 13.7848 17.693 13.7707 17.6502C13.7556 17.6038 13.7403 17.5574 13.7262 17.5108C13.705 17.4411 13.685 17.3709 13.6662 17.3004C13.653 17.2509 13.6411 17.2009 13.629 17.1511C13.6195 17.1119 13.6104 17.0727 13.6017 17.0333C13.591 16.985 13.5801 16.9368 13.5704 16.8882C13.5555 16.8126 13.5419 16.7366 13.5296 16.6601C13.523 16.6189 13.5172 16.5776 13.5113 16.5363C13.5026 16.4752 13.4947 16.4138 13.4878 16.3522C13.4843 16.3218 13.4803 16.2914 13.4772 16.261C13.4683 16.1705 13.4616 16.0793 13.4564 15.9878C13.4549 15.9615 13.4537 15.9352 13.4525 15.9089C13.4481 15.811 13.445 15.7129 13.445 15.6141C13.445 15.5082 13.448 15.4031 13.4531 15.2984C13.4545 15.2699 13.4568 15.2417 13.4584 15.2133C13.4632 15.1347 13.4689 15.0563 13.4764 14.9784C13.479 14.9512 13.4821 14.9241 13.485 14.8971C13.4942 14.8127 13.5046 14.7287 13.5171 14.6452C13.5194 14.629 13.5218 14.6127 13.5244 14.5965C13.8952 12.2275 15.5391 10.2753 17.732 9.46411ZM5.05613 11.9894C5.05613 8.37521 7.9965 5.43472 11.6108 5.43472C13.4969 5.43472 15.2786 6.2557 16.5104 7.63928C13.6508 8.88154 11.6687 11.5676 11.3452 14.7056C11.3429 14.7269 11.3413 14.7482 11.3393 14.7696C11.3285 14.8814 11.32 14.9936 11.3136 15.1065C11.3117 15.1408 11.3095 15.1751 11.3079 15.2096C11.3018 15.3439 11.2976 15.4787 11.2976 15.6144C11.2976 15.7514 11.3016 15.8881 11.308 16.0247C11.3106 16.0797 11.3151 16.1342 11.3186 16.1888C11.3239 16.2674 11.3293 16.346 11.3366 16.4244C11.343 16.4941 11.351 16.5634 11.3591 16.6327C11.3662 16.693 11.3737 16.7531 11.3821 16.8133C11.3931 16.8922 11.4049 16.9708 11.4179 17.0491C11.4257 17.0956 11.4343 17.142 11.4428 17.1884C11.4589 17.276 11.4753 17.3634 11.494 17.4501C11.5002 17.4787 11.5073 17.507 11.5138 17.5355C11.5867 17.8579 11.6772 18.1737 11.785 18.4815C11.7919 18.5014 11.7979 18.5215 11.8049 18.5413C11.7401 18.5432 11.6753 18.5442 11.6106 18.5442C7.9965 18.544 5.05613 15.6037 5.05613 11.9894ZM10.1898 25.6814C10.1662 25.7187 10.1436 25.7566 10.1204 25.7941C10.0713 25.8733 10.0227 25.9528 9.97565 26.033C9.94934 26.0778 9.924 26.1229 9.89844 26.168C9.85613 26.2424 9.81436 26.3171 9.77376 26.3923C9.74821 26.4397 9.72308 26.4873 9.69816 26.5349C9.65907 26.6097 9.62095 26.685 9.58358 26.7605C9.56006 26.8079 9.53665 26.8553 9.51389 26.903C9.47587 26.9825 9.43925 27.0628 9.40306 27.1431C9.38341 27.1868 9.36322 27.2302 9.34421 27.2741C9.30233 27.3703 9.26238 27.4673 9.22319 27.5646C9.2117 27.593 9.19946 27.6212 9.18829 27.6496C9.13857 27.776 9.09099 27.9033 9.04589 28.0312C9.03558 28.0605 9.02635 28.0901 9.01614 28.1195C8.98221 28.218 8.94913 28.3169 8.91789 28.4163C8.9036 28.4619 8.8904 28.5078 8.87665 28.5535C8.85141 28.6377 8.82661 28.722 8.8033 28.8069C8.78945 28.8573 8.77624 28.9079 8.76303 28.9586C8.74177 29.04 8.72137 29.1216 8.70204 29.2035C8.68969 29.2554 8.67766 29.3073 8.66617 29.3592C8.6477 29.4423 8.63041 29.5256 8.61376 29.609C8.60378 29.6592 8.59347 29.7093 8.58413 29.7597C8.56727 29.8505 8.55212 29.9418 8.53741 30.0332C8.53054 30.0762 8.52291 30.1189 8.51647 30.1619C8.4965 30.2961 8.47835 30.4307 8.4631 30.5659C8.46288 30.5675 8.46278 30.5691 8.46267 30.5707C8.44882 30.6936 8.4369 30.8168 8.42691 30.9404H2.14775V28.2477C2.14775 24.5688 4.26264 21.2661 7.57597 19.6963C8.78301 20.3308 10.1551 20.6919 11.6107 20.6919C12.0317 20.6919 12.4539 20.6608 12.873 20.5991C12.9383 20.6922 13.0046 20.7844 13.0733 20.8748C13.0965 20.9052 13.1206 20.9348 13.1442 20.9649C13.2121 21.0516 13.2809 21.1375 13.352 21.2215C13.3811 21.256 13.411 21.2897 13.4406 21.3238C13.5072 21.4002 13.5749 21.4757 13.644 21.5497C13.6803 21.5887 13.7172 21.627 13.7542 21.6654C13.8174 21.7306 13.8815 21.7948 13.9467 21.858C13.9712 21.8818 13.9943 21.9069 14.019 21.9304C13.9257 21.9868 13.8332 22.0446 13.7416 22.1035C13.7267 22.1131 13.7121 22.1232 13.6973 22.1328C13.6057 22.1923 13.515 22.2531 13.4253 22.3151C13.3942 22.3365 13.3633 22.3582 13.3324 22.3799C13.2524 22.4363 13.1732 22.4936 13.0947 22.552C13.0699 22.5704 13.0448 22.5885 13.0202 22.6072C12.9203 22.6826 12.8216 22.7595 12.7242 22.8381C12.703 22.8553 12.6821 22.873 12.6609 22.8904C12.5833 22.9539 12.5066 23.0185 12.4307 23.084C12.4013 23.1093 12.3721 23.1349 12.3429 23.1605C12.267 23.2274 12.192 23.2953 12.1178 23.3641C12.0985 23.3821 12.0787 23.3997 12.0595 23.4178C11.9684 23.5035 11.8788 23.5908 11.7904 23.6796C11.7674 23.7027 11.745 23.7262 11.7222 23.7494C11.6545 23.8185 11.5876 23.8883 11.5216 23.9591C11.4954 23.9872 11.4692 24.0153 11.4432 24.0438C11.3689 24.125 11.2957 24.2072 11.2236 24.2907C11.2123 24.3038 11.2006 24.3164 11.1893 24.3297C11.1072 24.4255 11.0269 24.5233 10.9476 24.622C10.9255 24.6495 10.9039 24.6774 10.8821 24.7052C10.8225 24.7809 10.7638 24.8574 10.706 24.9346C10.6837 24.9644 10.6612 24.9941 10.6392 25.0241C10.5636 25.1272 10.489 25.2312 10.4165 25.3369C10.3386 25.4506 10.2632 25.5656 10.1898 25.6814ZM10.537 34.5654V33.0883V31.8727C10.537 31.7535 10.5392 31.6347 10.5436 31.5162C10.545 31.4773 10.5481 31.4386 10.5501 31.3997C10.5539 31.3207 10.5576 31.2415 10.5634 31.1628C10.5669 31.115 10.5723 31.0677 10.5766 31.02C10.5828 30.9506 10.5884 30.8811 10.5961 30.8122C10.6018 30.7617 10.6092 30.7116 10.6157 30.6612C10.6241 30.5956 10.6319 30.5299 10.6416 30.4646C10.6494 30.4126 10.6589 30.3611 10.6674 30.3093C10.678 30.2464 10.6877 30.1832 10.6996 30.1206C10.7095 30.0677 10.7211 30.0153 10.732 29.9626C10.7444 29.9018 10.7564 29.8408 10.77 29.7804C10.782 29.7272 10.7958 29.6744 10.8087 29.6214C10.8232 29.5623 10.837 29.5029 10.8526 29.4442C10.8668 29.3908 10.8824 29.338 10.8975 29.285C10.9138 29.2274 10.9297 29.1696 10.9471 29.1124C10.9633 29.0591 10.9811 29.0063 10.9982 28.9533C11.0165 28.8972 11.0342 28.8409 11.0534 28.7852C11.0716 28.7324 11.0913 28.6801 11.1104 28.6278C11.1306 28.5726 11.1504 28.5172 11.1715 28.4625C11.1917 28.4104 11.2132 28.3589 11.2341 28.3072C11.2561 28.2532 11.2778 28.1988 11.3008 28.1452C11.323 28.0936 11.3465 28.0425 11.3695 27.9913C11.3933 27.9386 11.4168 27.8857 11.4415 27.8335C11.4657 27.7825 11.491 27.7321 11.516 27.6815C11.5416 27.63 11.5668 27.5783 11.5932 27.5273C11.6193 27.4771 11.6465 27.4275 11.6734 27.3777C11.7007 27.3274 11.7277 27.277 11.7558 27.2272C11.7837 27.1778 11.8127 27.1291 11.8414 27.0803C11.8704 27.0311 11.8992 26.9818 11.9291 26.933C11.9589 26.8846 11.9896 26.8369 12.0202 26.789C12.0509 26.741 12.0814 26.693 12.113 26.6456C12.1446 26.5981 12.177 26.5513 12.2094 26.5045C12.2417 26.4577 12.274 26.411 12.307 26.3649C12.3403 26.3185 12.3746 26.2727 12.4088 26.2269C12.4428 26.1814 12.4766 26.136 12.5113 26.0912C12.5463 26.046 12.5822 26.0015 12.618 25.9568C12.6536 25.9125 12.6892 25.8684 12.7255 25.8248C12.7621 25.781 12.7995 25.7377 12.8369 25.6945C12.8741 25.6515 12.9115 25.6084 12.9496 25.5659C12.9878 25.5234 13.0267 25.4815 13.0656 25.4396C13.1045 25.3978 13.1434 25.3563 13.183 25.3153C13.2227 25.274 13.2632 25.2334 13.3038 25.1929C13.3443 25.1525 13.385 25.1122 13.4262 25.0723C13.4674 25.0327 13.5091 24.9936 13.5511 24.9546C13.5932 24.9156 13.6355 24.8766 13.6784 24.8381C13.7211 24.7999 13.7643 24.7622 13.8078 24.7247C13.8514 24.687 13.8953 24.6496 13.9396 24.6126C13.9838 24.5759 14.0283 24.5397 14.0732 24.5037C14.1184 24.4674 14.164 24.4315 14.2099 24.3959C14.2554 24.3609 14.3012 24.3263 14.3473 24.292C14.3941 24.2571 14.4413 24.2226 14.4889 24.1885C14.5355 24.1551 14.5826 24.1223 14.6299 24.0896C14.6785 24.0562 14.7272 24.0233 14.7764 23.9907C14.8242 23.9592 14.8724 23.9279 14.9208 23.8971C14.971 23.8652 15.0215 23.8337 15.0723 23.8028C15.1212 23.773 15.1705 23.7434 15.2201 23.7144C15.2717 23.6843 15.3237 23.6545 15.376 23.6252C15.4261 23.5971 15.4766 23.5692 15.5274 23.542C15.5805 23.5134 15.6341 23.4854 15.688 23.4577C15.7391 23.4314 15.7905 23.4055 15.8422 23.38C15.8829 23.3601 15.9241 23.3407 15.9652 23.3213C17.1721 23.9557 18.5444 24.3168 19.9999 24.3168C21.4556 24.3168 22.8278 23.9557 24.0347 23.3213C24.0755 23.3406 24.1163 23.3598 24.1567 23.3796C24.2091 23.4054 24.261 23.4316 24.3127 23.4581C24.366 23.4855 24.4191 23.5132 24.4717 23.5414C24.523 23.569 24.574 23.5972 24.6247 23.6256C24.6764 23.6546 24.7277 23.6839 24.7786 23.7138C24.8289 23.7432 24.8789 23.7732 24.9285 23.8035C24.9786 23.8341 25.0284 23.865 25.0778 23.8965C25.1269 23.9277 25.1757 23.9593 25.2241 23.9914C25.2728 24.0235 25.321 24.0561 25.3689 24.0891C25.4167 24.1221 25.4643 24.1553 25.5114 24.189C25.5585 24.2227 25.6051 24.2568 25.6515 24.2914C25.6981 24.326 25.7444 24.3609 25.7903 24.3963C25.8358 24.4316 25.8809 24.4672 25.9258 24.5032C25.9709 24.5394 26.0158 24.5758 26.0603 24.6127C26.1044 24.6495 26.148 24.6867 26.1914 24.7242C26.2351 24.7619 26.2786 24.7998 26.3215 24.8383C26.3641 24.8765 26.406 24.9151 26.4478 24.9539C26.4901 24.9932 26.5323 25.0327 26.5739 25.0728C26.6148 25.1122 26.6551 25.1521 26.6951 25.1922C26.7359 25.233 26.7767 25.2739 26.8168 25.3154C26.8561 25.3562 26.8949 25.3974 26.9334 25.4389C26.9727 25.4811 27.0119 25.5234 27.0504 25.5662C27.0882 25.6083 27.1252 25.6509 27.1622 25.6937C27.1998 25.7372 27.2375 25.7808 27.2744 25.825C27.3106 25.8683 27.3459 25.9122 27.3812 25.9561C27.4173 26.001 27.4534 26.0458 27.4886 26.0913C27.5232 26.1359 27.5568 26.1811 27.5905 26.2263C27.6249 26.2723 27.6593 26.3184 27.6928 26.365C27.7257 26.4108 27.7578 26.4574 27.7899 26.5039C27.8225 26.551 27.8551 26.598 27.8868 26.6457C27.9182 26.6928 27.9484 26.7405 27.9789 26.7882C28.0098 26.8364 28.0407 26.8845 28.0707 26.9333C28.1003 26.9815 28.1289 27.0304 28.1576 27.0792C28.1866 27.1284 28.2158 27.1775 28.2439 27.2272C28.2719 27.2768 28.2987 27.3271 28.3259 27.3771C28.353 27.427 28.3803 27.4769 28.4063 27.5272C28.4328 27.5781 28.4579 27.6298 28.4834 27.6812C28.5085 27.7318 28.5339 27.7823 28.5581 27.8334C28.5828 27.8856 28.6062 27.9383 28.6298 27.9909C28.653 28.0424 28.6765 28.0935 28.6988 28.1453C28.7216 28.1985 28.743 28.2523 28.7649 28.306C28.7862 28.3582 28.8079 28.4102 28.8282 28.4628C28.8492 28.5172 28.8689 28.5723 28.8889 28.6273C28.9082 28.6798 28.9278 28.7321 28.9461 28.7851C28.9654 28.841 28.9832 28.8976 29.0015 28.954C29.0186 29.0067 29.0363 29.0592 29.0524 29.1124C29.0699 29.1696 29.0857 29.2275 29.1021 29.2852C29.1171 29.3381 29.1328 29.3908 29.147 29.4442C29.1626 29.5029 29.1764 29.5622 29.1909 29.6214C29.2039 29.6743 29.2176 29.7272 29.2296 29.7804C29.2432 29.8408 29.255 29.9017 29.2676 29.9623C29.2784 30.0151 29.29 30.0676 29.3 30.1206C29.3117 30.1827 29.3214 30.2453 29.3319 30.3078C29.3406 30.3601 29.3503 30.4121 29.3581 30.4647C29.3678 30.5295 29.3755 30.5947 29.3839 30.6598C29.3904 30.7106 29.398 30.7611 29.4037 30.8121C29.4114 30.881 29.417 30.9505 29.4232 31.0199C29.4275 31.0676 29.4329 31.1149 29.4364 31.1627C29.4423 31.2414 29.4459 31.3207 29.4497 31.3998C29.4517 31.4386 29.4548 31.4773 29.4562 31.5161C29.4606 31.6346 29.4628 31.7533 29.4628 31.8725V33.0881V34.5654H10.537ZM31.5735 30.9404C31.5525 30.6788 31.5222 30.4188 31.4837 30.1605C31.4776 30.1196 31.4703 30.079 31.4638 30.0382C31.4488 29.9446 31.4333 29.8513 31.416 29.7583C31.4069 29.7093 31.3969 29.6606 31.3871 29.6117C31.3702 29.5268 31.3526 29.442 31.3338 29.3576C31.3225 29.3067 31.3106 29.2558 31.2986 29.2051C31.279 29.1222 31.2583 29.0397 31.2369 28.9573C31.2239 28.9074 31.2109 28.8575 31.1971 28.8077C31.1736 28.722 31.1485 28.6367 31.1229 28.5516C31.1094 28.5067 31.0965 28.4617 31.0824 28.4169C31.0508 28.3161 31.0173 28.2158 30.9828 28.1157C30.9731 28.0878 30.9643 28.0595 30.9544 28.0316C30.9091 27.9033 30.8615 27.7757 30.8116 27.6489C30.8009 27.6217 30.7892 27.5949 30.7782 27.5677C30.7386 27.4692 30.698 27.371 30.6556 27.2735C30.6368 27.2302 30.6169 27.1874 30.5976 27.1444C30.5611 27.0632 30.5241 26.9823 30.4857 26.902C30.4632 26.855 30.44 26.8083 30.417 26.7615C30.3793 26.6853 30.3407 26.6094 30.3013 26.5339C30.2766 26.4866 30.2518 26.4396 30.2265 26.3927C30.1856 26.3172 30.1438 26.2422 30.1012 26.1675C30.0757 26.1226 30.0504 26.0777 30.0244 26.0331C29.9771 25.9525 29.9282 25.8727 29.8788 25.793C29.8559 25.7559 29.8335 25.7184 29.8101 25.6816C29.7366 25.5657 29.6612 25.4507 29.5832 25.3369C29.5106 25.2311 29.436 25.1271 29.3604 25.024C29.3385 24.9942 29.3161 24.9646 29.294 24.935C29.2359 24.8574 29.177 24.7807 29.1171 24.7046C29.0956 24.6773 29.0742 24.6496 29.0523 24.6224C28.9729 24.5234 28.8923 24.4254 28.8099 24.3293C28.7992 24.3169 28.7881 24.3047 28.7774 24.2923C28.7048 24.2082 28.6309 24.1253 28.556 24.0435C28.5303 24.0153 28.5044 23.9875 28.4784 23.9596C28.412 23.8884 28.3447 23.8181 28.2766 23.7487C28.2542 23.7258 28.2322 23.7027 28.2095 23.6801C28.1209 23.5911 28.0309 23.5035 27.9396 23.4176C27.9208 23.3999 27.9015 23.3827 27.8826 23.3651C27.808 23.2958 27.7326 23.2276 27.6564 23.1604C27.6274 23.1349 27.5981 23.1095 27.5689 23.0842C27.4929 23.0186 27.4161 22.954 27.3385 22.8904C27.3173 22.8732 27.2966 22.8554 27.2753 22.8383C27.178 22.7596 27.0794 22.6828 26.9796 22.6074C26.9547 22.5886 26.9293 22.5703 26.9043 22.5517C26.8261 22.4938 26.7474 22.4366 26.6677 22.3806C26.6365 22.3586 26.6052 22.3366 26.5739 22.315C26.485 22.2536 26.3953 22.1935 26.3047 22.1347C26.2888 22.1243 26.2732 22.1136 26.2573 22.1034C26.1658 22.0447 26.0737 21.987 25.9805 21.9307C26.0045 21.9078 26.0271 21.8835 26.0508 21.8603C26.1174 21.7958 26.1828 21.7303 26.2472 21.6638C26.2832 21.6266 26.3189 21.5893 26.3542 21.5515C26.4245 21.4764 26.493 21.3997 26.5607 21.3221C26.5895 21.2891 26.6183 21.2563 26.6466 21.2228C26.7186 21.1376 26.7887 21.0505 26.8575 20.9623C26.88 20.9335 26.9031 20.9052 26.9253 20.8761C26.9943 20.7853 27.061 20.6928 27.1266 20.5993C27.5456 20.6609 27.9679 20.692 28.3888 20.692C29.8445 20.692 31.2167 20.331 32.4236 19.6964C35.737 21.2662 37.8518 24.5689 37.8518 28.2478V30.9404H31.5735Z" fill="black"/>
</g>
<defs>
<clipPath id="clip0_1_134">
<rect width="40" height="40" fill="white"/>
</clipPath>
</defs>
</svg>
