<svg width="40" height="40" viewBox="0 0 40 40" fill="none" xmlns="http://www.w3.org/2000/svg">
<g clip-path="url(#clip0_1_127)">
<path d="M40 25.8685C40 24.9982 39.7021 24.1901 39.2053 23.5528C39.0124 23.3063 38.7817 23.0926 38.5352 22.8985C38.9258 22.3028 39.1577 21.5936 39.1577 20.8295C39.1577 18.7311 37.4585 17.0294 35.3589 17.0294H32.5855H32.5818H32.5427H32.3804C32.262 17.0294 32.218 17.0294 32.218 17.0294C32.1851 17.0294 32.1558 17.0294 32.1155 17.0294H30.094C29.5715 17.0062 29.0466 16.9476 28.6279 16.8365C28.1995 16.7278 27.9065 16.5594 27.7831 16.4214C27.567 16.176 27.5231 16.0198 27.5145 15.7622C27.5121 15.5437 27.5805 15.2471 27.7245 14.9089C27.937 14.4011 28.3068 13.8189 28.6791 13.2561C28.8659 12.9742 29.0527 12.6946 29.2212 12.4139C29.3897 12.1332 29.5434 11.8572 29.6582 11.5471C30.0134 10.5596 30.7825 8.75175 30.7837 6.54839C30.7849 5.6219 30.647 4.62089 30.2856 3.59425C29.9768 2.71292 29.4995 2.00487 28.8977 1.51542C28.2983 1.02471 27.5695 0.763464 26.8456 0.765886C25.9838 0.764636 25.1488 1.12846 24.5116 1.75956C23.872 2.38948 23.424 3.28057 23.247 4.3462C23.1908 4.69409 23.015 5.31909 22.7318 6.05643C22.3082 7.16604 21.6466 8.55768 20.803 9.91753C19.9608 11.2786 18.9305 12.6067 17.7977 13.6065C16.3634 14.8748 14.9986 15.9466 13.8341 16.889C12.6683 17.8375 11.7064 18.6346 11.0398 19.4537C10.8982 19.6319 10.6455 19.8285 10.3306 19.9969C9.86062 20.2521 9.26492 20.4413 8.80109 20.5511C8.56914 20.6073 8.36898 20.6464 8.22977 20.6707C8.19313 20.6768 8.17359 20.6792 8.14672 20.6842V20.2777H2.84914C1.27445 20.2777 0 21.5533 0 23.1268V35.8564C0 37.4299 1.27445 38.7055 2.84914 38.7055H6.24758C7.29742 38.7055 8.14703 37.8559 8.14703 36.806V36.7121C8.14945 36.7121 8.89656 36.7121 11.1866 36.7121C11.6065 36.7084 12.4439 36.839 13.4327 37.0551C14.9292 37.3761 16.8177 37.8717 18.656 38.3027C20.5005 38.7311 22.2766 39.101 23.6768 39.1547C25.1648 39.2109 26.261 39.2341 27.1302 39.2341C28.982 39.2365 29.8279 39.1193 31.0938 38.9789L31.1255 38.974L32.9028 38.7189L32.9199 38.7152C34.7229 38.4222 36.1035 36.8671 36.1035 34.9749C36.1035 34.7296 36.0718 34.494 36.0254 34.2645C36.5112 34.0545 36.9531 33.7567 37.3071 33.3746C37.9321 32.7044 38.3191 31.7949 38.3179 30.8037C38.3191 30.2324 38.1885 29.6928 37.9614 29.2107C39.1675 28.5785 40 27.3297 40 25.8685ZM4.00633 35.6708C3.28367 35.6708 2.69773 35.0849 2.69773 34.3622C2.69773 33.6396 3.28367 33.0536 4.00633 33.0536C4.72898 33.0536 5.31492 33.6396 5.31492 34.3622C5.31492 35.0849 4.72898 35.6708 4.00633 35.6708ZM36.3062 27.7057C35.9095 27.7289 35.5677 27.9876 35.4395 28.3636C35.3125 28.7384 35.4248 29.1522 35.7227 29.4122C36.1255 29.765 36.3709 30.2496 36.3721 30.8039C36.3709 31.2909 36.1878 31.7194 35.8826 32.0478C35.5762 32.3774 35.1538 32.5946 34.6777 32.6361C34.3505 32.6642 34.0552 32.8595 33.9013 33.15C33.7475 33.4393 33.7499 33.7921 33.9111 34.0802C34.0698 34.3646 34.1577 34.6613 34.1577 34.9749C34.1577 35.8942 33.4887 36.6461 32.6073 36.7938L30.8641 37.0453C29.5677 37.1881 28.9013 37.2857 27.13 37.2882C26.2963 37.2882 25.222 37.2649 23.7474 37.21C23.0052 37.1832 21.9811 37.0245 20.8544 36.7949C19.1625 36.4495 17.2313 35.9502 15.4991 35.5328C14.6313 35.324 13.8134 35.136 13.0883 34.9969C12.3583 34.8589 11.7357 34.7674 11.1864 34.7649C10.2587 34.7649 9.59461 34.7649 9.12094 34.7649V22.4762C9.34555 22.4249 9.5982 22.3603 9.87164 22.276C10.3074 22.1417 10.7859 21.9622 11.2535 21.7108C11.7186 21.4593 12.1813 21.1371 12.5548 20.6769C13.0125 20.1044 13.9134 19.3268 15.0597 18.4028C16.2072 17.4738 17.6024 16.3776 19.0868 15.0653C20.8593 13.4967 22.2704 11.4117 23.3031 9.47331C23.8183 8.50409 24.2382 7.57143 24.5507 6.75112C24.8645 5.92589 25.0732 5.2301 25.1684 4.66495C25.288 3.94471 25.5688 3.45159 25.8788 3.14518C26.1913 2.84003 26.527 2.71425 26.8456 2.71307C27.1154 2.71432 27.3877 2.79971 27.6684 3.02557C27.9491 3.2526 28.2348 3.63471 28.4472 4.23776C28.7291 5.04221 28.8366 5.81245 28.8378 6.54854C28.8378 8.30393 28.2152 9.83221 27.8295 10.8796C27.7783 11.0274 27.6195 11.3154 27.4072 11.6463C27.0862 12.1504 26.6491 12.7645 26.2768 13.4444C25.9081 14.1267 25.5737 14.8849 25.5663 15.7625C25.559 16.4388 25.8178 17.181 26.361 17.751C26.8676 18.2857 27.5048 18.5518 28.1335 18.7203C28.7683 18.8863 29.4213 18.9485 30.0341 18.9754L30.0756 18.9767H32.1154C32.1557 18.9767 32.185 18.9767 32.218 18.9767C32.218 18.9767 32.2961 18.9767 32.3803 18.9767C32.3877 18.9767 32.3937 18.9767 32.4023 18.9767C32.4584 18.9767 32.5073 18.9767 32.5427 18.9767C32.5609 18.9767 32.578 18.9767 32.5817 18.9767H32.5854H35.3588C36.3805 18.9779 37.2095 19.8067 37.2106 20.8297C37.2106 21.4632 36.892 22.0174 36.4037 22.3556C36.0912 22.5704 35.9326 22.9452 35.9936 23.3187C36.0571 23.6922 36.328 23.9938 36.693 24.0963C37.0849 24.2049 37.4279 24.4393 37.6696 24.7493C37.9101 25.0606 38.0517 25.4414 38.0517 25.8687C38.0542 26.8499 37.2827 27.6471 36.3062 27.7057Z" fill="black"/>
</g>
<defs>
<clipPath id="clip0_1_127">
<rect width="40" height="40" fill="white"/>
</clipPath>
</defs>
</svg>
