<svg width="404" height="386" viewBox="0 0 404 386" fill="none" xmlns="http://www.w3.org/2000/svg">
<path fill-rule="evenodd" clip-rule="evenodd" d="M20.1735 385.425V337.247H25.6388V380.123H398.535V5.30174H25.6388V244.103H20.1735V0H404V385.425H20.1735Z" fill="white" fill-opacity="0.08"/>
<path d="M25.6025 287.885C28.6186 286.054 31.214 283.096 31.214 278.588C31.214 269.29 24.1294 265.557 14.3795 265.557H2.17446C0.982016 265.557 0 266.543 0 267.741V314.792C0 315.989 0.982016 316.975 2.17446 316.975H16.0629C25.4622 316.975 33.669 311.34 33.669 302.113C33.669 296.619 29.8812 292.111 25.5323 289.294C24.7607 288.801 24.6204 288.519 25.6025 287.885ZM26.7248 278.588C26.7248 285.138 21.6043 286.124 14.3795 286.124C14.3795 286.124 7.01437 286.124 5.96222 286.124C4.9802 286.124 4.55934 285.561 4.55934 284.575C4.55934 280.983 4.55934 272.249 4.55934 271.544C4.55934 270.699 4.91007 270.135 6.10251 270.135C7.29496 270.135 14.7302 270.135 14.7302 270.135C21.8147 270.135 26.7248 271.896 26.7248 278.588ZM16.0629 312.397C16.0629 312.397 7.29494 312.397 6.24279 312.397C5.19063 312.397 4.55934 311.834 4.55934 310.847C4.55934 310.073 4.55934 296.831 4.55934 292.252C4.55934 291.266 4.91006 290.703 5.96222 290.703C6.94423 290.703 16.0629 290.703 16.0629 290.703C22.937 290.703 29.1798 295.352 29.1798 302.113C29.1798 308.875 22.937 312.397 16.0629 312.397Z" fill="white" fill-opacity="0.08"/>
<path d="M55.8346 282.389C46.0846 282.389 38.1583 290.349 38.1583 300.139C38.1583 309.93 46.0846 317.889 55.8346 317.889C65.6547 317.889 73.5809 309.93 73.5809 300.139C73.5809 290.349 65.6547 282.389 55.8346 282.389ZM55.8346 313.663C48.6097 313.663 42.6475 307.465 42.6475 300.139C42.6475 292.814 48.6097 286.616 55.8346 286.616C63.1295 286.616 69.0216 292.814 69.0216 300.139C69.0216 307.465 63.1295 313.663 55.8346 313.663Z" fill="white" fill-opacity="0.08"/>
<path d="M99.8149 303.24C98.1315 299.155 89.6441 295.563 87.8905 294.647C87.2592 294.295 85.225 293.168 85.225 290.984C85.225 288.237 87.6801 286.617 89.5038 286.617C91.6783 286.617 92.1693 287.251 92.8707 287.885C93.8527 288.731 95.3257 290.773 96.939 289.505C97.921 288.801 98.0613 287.604 97.5703 286.688C96.5182 284.786 93.4319 283.166 90.8365 282.532C89.9948 282.321 88.3114 282.321 86.9085 282.673C85.7862 283.025 84.734 283.377 83.8222 284.082C81.6477 285.772 80.5254 288.308 80.5254 290.984C80.5254 294.577 82.279 296.549 83.9625 297.887C86.207 299.578 88.8024 299.789 91.6783 301.62C94.9049 303.733 96.2376 305.283 96.0272 307.819C95.8167 310.566 93.2214 313.665 90.065 313.665C86.7682 313.665 84.8042 312.115 83.3312 310.073C82.6999 309.227 81.6477 306.551 79.333 307.748C77.4391 308.734 78.2808 310.777 78.351 310.918C80.7358 315.144 84.3132 317.891 90.065 317.891C98.8329 317.891 102.27 309.298 99.8149 303.24Z" fill="white" fill-opacity="0.08"/>
<path d="M102.901 300.21C102.901 310.071 110.968 317.889 120.788 317.889C125.768 317.889 130.327 315.846 133.343 312.254C133.484 312.043 133.975 311.902 133.975 312.747C133.975 313.24 133.975 314.86 133.975 314.86C133.975 316.058 134.957 317.044 136.149 317.044H136.29C137.482 317.044 138.464 316.058 138.464 314.86V285.418C138.464 284.221 137.482 283.235 136.29 283.235H136.149C134.957 283.235 133.975 284.221 133.975 285.418C133.975 286.263 133.975 287.39 133.975 287.461C133.975 288.376 133.273 288.165 133.063 287.813C130.327 284.362 125.487 282.389 120.647 282.389C110.827 282.389 102.901 290.349 102.901 300.21ZM107.39 300.21C107.39 292.884 113.282 286.616 120.647 286.616C127.942 286.616 133.905 292.884 133.905 300.21C133.905 307.535 128.083 313.663 120.788 313.663C113.423 313.663 107.39 307.535 107.39 300.21Z" fill="white" fill-opacity="0.08"/>
</svg>
